<?xml version="1.0" standalone="no"?>
<!DOCTYPE svg PUBLIC "-//W3C//DTD SVG 20010904//EN"
 "http://www.w3.org/TR/2001/REC-SVG-20010904/DTD/svg10.dtd">
<svg version="1.0" xmlns="http://www.w3.org/2000/svg"
 width="512.000000pt" height="512.000000pt" viewBox="0 0 512.000000 512.000000"
 preserveAspectRatio="xMidYMid meet">

<g transform="translate(0.000000,512.000000) scale(0.100000,-0.100000)"
fill="#000000" stroke="none">
<path d="M805 4748 c-89 -16 -204 -80 -278 -153 -77 -76 -138 -190 -156 -289
-15 -83 -15 -3409 0 -3492 18 -99 79 -213 156 -289 76 -76 190 -137 287 -154
83 -15 3409 -15 3492 0 99 18 213 79 289 156 76 76 137 190 154 287 15 83 15
3409 0 3492 -38 213 -230 405 -443 443 -77 14 -3428 13 -3501 -1z m2487 -969
c77 -16 204 -78 271 -133 l59 -48 51 13 c75 17 182 56 261 95 38 19 72 32 75
29 9 -10 -59 -133 -105 -189 -23 -29 -65 -70 -94 -92 -28 -21 -46 -40 -40 -42
17 -6 195 37 268 65 l65 24 -28 -38 c-64 -85 -140 -165 -210 -220 l-74 -58 0
-78 c-7 -760 -503 -1456 -1201 -1685 -226 -75 -384 -96 -647 -90 -298 8 -509
60 -773 191 l-145 72 165 6 c227 9 357 39 535 125 109 52 218 121 211 133 -3
4 -31 11 -63 14 -186 20 -376 153 -468 327 -19 38 -35 73 -35 79 0 7 36 11
108 12 59 1 121 5 137 8 l30 8 -45 12 c-224 64 -402 259 -446 489 -19 100 -18
116 4 107 64 -27 157 -54 208 -61 l59 -7 -54 46 c-137 117 -209 264 -218 447
-6 115 8 191 51 286 l24 52 128 -127 c287 -281 629 -450 1023 -505 165 -23
160 -24 150 27 -42 215 72 478 262 608 66 44 130 74 204 94 61 17 225 19 297
4z"/>
</g>
</svg>
